# xmcd
#
# Track frame offsets:
#	150
#	14457
#	27988
#	39822
#	54115
#	69000
#	79242
#	89951
#	121389
#	131884
#
# Disc length: 1993 seconds
#
# Revision: 0
# Processed by: cddbd v1.5.1PL0 Copyright (c) Steve Scherf et al.
# Submitted via: dBpowerAMP V4.0
#
DISCID=7d07c70a
DTITLE=Danny Hooper - Stockyard collection
DYEAR=1999
DGENRE=country
TTITLE0=Swinging doors/Tonight the bottle let me down
TTITLE1=It's four in the morning
TTITLE2=The auctioneer
TTITLE3=Till I can make it on my own
TTITLE4=Wolverton mountain
TTITLE5=Walk on by
TTITLE6=On the wings of a dove
TTITLE7=Someday soon/Summer wages/Four strong winds/Navajo rug
TTITLE8=Burning memories
TTITLE9=The John Deer tractor keys
EXTD=
EXTT0=
EXTT1=
EXTT2=
EXTT3=
EXTT4=
EXTT5=
EXTT6=
EXTT7=
EXTT8=
EXTT9=
PLAYORDER=
